<svg width="34" height="33" viewBox="0 0 34 33" fill="none" xmlns="http://www.w3.org/2000/svg">
<path d="M16.9999 0C12.9633 0.000166577 9.05837 1.42971 5.98394 4.03283C2.90952 6.63596 0.866192 10.2428 0.219571 14.208C-0.427049 18.1732 0.365234 22.2379 2.45466 25.675C4.54408 29.1121 7.7943 31.6971 11.6237 32.9676C12.4737 33.1157 12.7925 32.6082 12.7925 32.164C12.7925 31.7623 12.7712 30.43 12.7712 29.0132C8.49999 29.7956 7.39499 27.9771 7.055 27.0255C6.67773 26.1 6.07967 25.2798 5.31251 24.6358C4.71751 24.3186 3.86752 23.5362 5.29124 23.5151C5.83488 23.5738 6.35628 23.7621 6.81127 24.0639C7.26626 24.3657 7.64143 24.7723 7.90499 25.2491C8.1375 25.6647 8.45014 26.0307 8.82501 26.3259C9.19987 26.6211 9.62959 26.8398 10.0895 26.9694C10.5495 27.0991 11.0306 27.1371 11.5054 27.0814C11.9801 27.0257 12.4391 26.8773 12.8562 26.6448C12.9298 25.7847 13.3149 24.9806 13.9399 24.3821C10.1575 23.9592 6.205 22.5 6.205 16.0292C6.18111 14.3479 6.80456 12.7212 7.94749 11.4827C7.42777 10.0214 7.48858 8.41774 8.11749 6.99959C8.11749 6.99959 9.54118 6.5555 12.7925 8.73362C15.5741 7.97229 18.5107 7.97229 21.2924 8.73362C24.5436 6.53437 25.9674 6.99959 25.9674 6.99959C26.5964 8.41773 26.6572 10.0214 26.1374 11.4827C27.2837 12.719 27.9077 14.3472 27.8798 16.0292C27.8798 22.5212 23.9061 23.9592 20.1237 24.3821C20.5294 24.7913 20.8418 25.2826 21.0398 25.8227C21.2378 26.3627 21.3167 26.9388 21.2711 27.5118C21.2711 29.7746 21.2499 31.5931 21.2499 32.1641C21.2499 32.6082 21.5686 33.1369 22.4186 32.9677C26.2413 31.6868 29.4822 29.0957 31.5627 25.6569C33.6432 22.2181 34.428 18.1554 33.7769 14.194C33.1258 10.2327 31.0812 6.63053 28.0081 4.03057C24.9351 1.43061 21.0335 0.00208913 16.9999 0Z" fill="#9F9F9F"/>
</svg>
