<svg width="34" height="34" viewBox="0 0 34 34" fill="none" xmlns="http://www.w3.org/2000/svg">
<path d="M26.078 5.882C25.6745 5.882 25.2801 6.00164 24.9446 6.2258C24.6092 6.44996 24.3477 6.76856 24.1933 7.14133C24.0389 7.51409 23.9985 7.92426 24.0772 8.31998C24.1559 8.71571 24.3502 9.0792 24.6355 9.3645C24.9208 9.6498 25.2843 9.84409 25.68 9.9228C26.0757 10.0015 26.4859 9.96112 26.8587 9.80671C27.2314 9.65231 27.55 9.39084 27.7742 9.05536C27.9984 8.71989 28.118 8.32547 28.118 7.922C28.118 7.38096 27.9031 6.86208 27.5205 6.4795C27.1379 6.09693 26.619 5.882 26.078 5.882ZM33.898 9.996C33.8649 8.58551 33.6008 7.18998 33.116 5.865C32.6837 4.73133 32.011 3.70477 31.144 2.856C30.3022 1.98462 29.2733 1.3161 28.135 0.901C26.8135 0.401473 25.4164 0.131257 24.004 0.102C22.202 -9.49949e-08 21.624 0 17 0C12.376 0 11.798 -9.49949e-08 9.996 0.102C8.58356 0.131257 7.18648 0.401473 5.865 0.901C4.72885 1.3203 3.70079 1.98825 2.856 2.856C1.98462 3.6978 1.3161 4.72675 0.901 5.865C0.401473 7.18648 0.131257 8.58356 0.102 9.996C-9.49949e-08 11.798 0 12.376 0 17C0 21.624 -9.49949e-08 22.202 0.102 24.004C0.131257 25.4164 0.401473 26.8135 0.901 28.135C1.3161 29.2733 1.98462 30.3022 2.856 31.144C3.70079 32.0117 4.72885 32.6797 5.865 33.099C7.18648 33.5985 8.58356 33.8687 9.996 33.898C11.798 34 12.376 34 17 34C21.624 34 22.202 34 24.004 33.898C25.4164 33.8687 26.8135 33.5985 28.135 33.099C29.2733 32.6839 30.3022 32.0154 31.144 31.144C32.0148 30.2984 32.6882 29.2709 33.116 28.135C33.6008 26.81 33.8649 25.4145 33.898 24.004C33.898 22.202 34 21.624 34 17C34 12.376 34 11.798 33.898 9.996ZM30.838 23.8C30.8256 24.8791 30.6302 25.9483 30.26 26.962C29.9886 27.7018 29.5526 28.3703 28.985 28.917C28.4336 29.4789 27.7665 29.9139 27.03 30.192C26.0163 30.5622 24.9471 30.7576 23.868 30.77C22.168 30.855 21.539 30.872 17.068 30.872C12.597 30.872 11.968 30.872 10.268 30.77C9.14751 30.791 8.03181 30.6184 6.97 30.26C6.26583 29.9677 5.62931 29.5337 5.1 28.985C4.53575 28.4389 4.10523 27.7698 3.842 27.03C3.42696 26.0018 3.19675 24.9083 3.162 23.8C3.162 22.1 3.06 21.471 3.06 17C3.06 12.529 3.06 11.9 3.162 10.2C3.16962 9.09679 3.37102 8.00351 3.757 6.97C4.05628 6.25245 4.51565 5.61282 5.1 5.1C5.61648 4.51549 6.25479 4.05126 6.97 3.74C8.00624 3.36607 9.0984 3.17064 10.2 3.162C11.9 3.162 12.529 3.06 17 3.06C21.471 3.06 22.1 3.06 23.8 3.162C24.8791 3.17438 25.9483 3.36982 26.962 3.74C27.7345 4.02671 28.4279 4.49284 28.985 5.1C29.5421 5.6222 29.9774 6.26065 30.26 6.97C30.6378 8.00519 30.8334 9.09803 30.838 10.2C30.923 11.9 30.94 12.529 30.94 17C30.94 21.471 30.923 22.1 30.838 23.8ZM17 8.279C15.2759 8.28236 13.5914 8.79669 12.1595 9.75701C10.7276 10.7173 9.61244 12.0805 8.95498 13.6744C8.29751 15.2682 8.12723 17.0212 8.46565 18.7118C8.80407 20.4024 9.636 21.9547 10.8563 23.1727C12.0767 24.3906 13.6306 25.2195 15.3219 25.5547C17.0131 25.8898 18.7657 25.7161 20.3583 25.0555C21.9509 24.3949 23.3119 23.2771 24.2694 21.8434C25.2269 20.4096 25.738 18.7241 25.738 17C25.7402 15.8527 25.5156 14.7162 25.0771 13.656C24.6386 12.5958 23.9947 11.6328 23.1827 10.8223C22.3706 10.0118 21.4063 9.36985 20.3453 8.93338C19.2842 8.49691 18.1473 8.27452 17 8.279ZM17 22.661C15.8804 22.661 14.7859 22.329 13.8549 21.707C12.924 21.0849 12.1984 20.2008 11.7699 19.1664C11.3415 18.132 11.2293 16.9937 11.4478 15.8956C11.6662 14.7975 12.2054 13.7888 12.9971 12.9971C13.7888 12.2054 14.7975 11.6662 15.8956 11.4478C16.9937 11.2293 18.132 11.3415 19.1664 11.7699C20.2008 12.1984 21.0849 12.924 21.707 13.8549C22.329 14.7859 22.661 15.8804 22.661 17C22.661 17.7434 22.5146 18.4795 22.2301 19.1664C21.9456 19.8532 21.5286 20.4773 21.0029 21.0029C20.4773 21.5286 19.8532 21.9456 19.1664 22.2301C18.4795 22.5146 17.7434 22.661 17 22.661Z" fill="#AEC2D2"/>
</svg>
