<svg width="34" height="34" viewBox="0 0 34 34" fill="none" xmlns="http://www.w3.org/2000/svg">
<path d="M31.4859 0.000237709H2.51408C2.18841 -0.00425808 1.86504 0.0550577 1.56244 0.174798C1.25983 0.294538 0.983919 0.472356 0.750458 0.698098C0.516998 0.92384 0.330562 1.19308 0.201797 1.49045C0.0730323 1.78782 0.00446104 2.10749 0 2.4312V31.5688C0.00446104 31.8925 0.0730323 32.2122 0.201797 32.5095C0.330562 32.8069 0.516998 33.0762 0.750458 33.3019C0.983919 33.5276 1.25983 33.7055 1.56244 33.8252C1.86504 33.9449 2.18841 34.0043 2.51408 33.9998H31.4859C31.8116 34.0043 32.135 33.9449 32.4376 33.8252C32.7402 33.7055 33.0161 33.5276 33.2495 33.3019C33.483 33.0762 33.6694 32.8069 33.7982 32.5095C33.927 32.2122 33.9955 31.8925 34 31.5688V2.4312C33.9955 2.10749 33.927 1.78782 33.7982 1.49045C33.6694 1.19308 33.483 0.92384 33.2495 0.698098C33.0161 0.472356 32.7402 0.294538 32.4376 0.174798C32.135 0.0550577 31.8116 -0.00425808 31.4859 0.000237709ZM10.3129 28.4578H5.18209V13.1581H10.3129V28.4578ZM7.74748 11.0161C7.03989 11.0161 6.36127 10.7367 5.86092 10.2393C5.36057 9.742 5.07948 9.06746 5.07948 8.36412C5.07948 7.66078 5.36057 6.98624 5.86092 6.4889C6.36127 5.99156 7.03989 5.71216 7.74748 5.71216C8.12322 5.6698 8.50372 5.70681 8.86407 5.82076C9.22442 5.93471 9.55649 6.12302 9.83855 6.37338C10.1206 6.62374 10.3463 6.93049 10.5008 7.27356C10.6553 7.61662 10.7352 7.98825 10.7352 8.36412C10.7352 8.73999 10.6553 9.11162 10.5008 9.45469C10.3463 9.79775 10.1206 10.1045 9.83855 10.3549C9.55649 10.6052 9.22442 10.7935 8.86407 10.9075C8.50372 11.0214 8.12322 11.0584 7.74748 11.0161ZM28.8179 28.4578H23.6871V20.247C23.6871 18.19 22.9517 16.847 21.0875 16.847C20.5106 16.8512 19.9488 17.0311 19.4779 17.3624C19.007 17.6937 18.6495 18.1605 18.4537 18.7C18.3199 19.0995 18.2619 19.5203 18.2827 19.941V28.4408H13.1519C13.1519 28.4408 13.1519 14.535 13.1519 13.1411H18.2827V15.3C18.7488 14.4961 19.4267 13.8338 20.2434 13.3845C21.0601 12.9352 21.9847 12.7158 22.9175 12.7501C26.338 12.7501 28.8179 14.943 28.8179 19.652V28.4578Z" fill="#9F9F9F"/>
</svg>
